<?xml version="1.0" encoding="utf-8" standalone="no"?>
<!DOCTYPE svg PUBLIC "-//W3C//DTD SVG 1.1//EN"
  "http://www.w3.org/Graphics/SVG/1.1/DTD/svg11.dtd">
<!-- Created with matplotlib (https://matplotlib.org/) -->
<svg height="386.227562pt" version="1.1" viewBox="0 0 785.164321 386.227562" width="785.164321pt" xmlns="http://www.w3.org/2000/svg" xmlns:xlink="http://www.w3.org/1999/xlink">
 <defs>
  <style type="text/css">
*{stroke-linecap:butt;stroke-linejoin:round;}
  </style>
 </defs>
 <g id="figure_1">
  <g id="patch_1">
   <path d="M 0 386.227562 
L 785.164321 386.227562 
L 785.164321 0 
L 0 0 
z
" style="fill:#ffffff;"/>
  </g>
  <g id="axes_1">
   <g id="patch_2">
    <path d="M 59.524125 333.36 
L 729.124125 333.36 
L 729.124125 7.2 
L 59.524125 7.2 
z
" style="fill:#ffffff;"/>
   </g>
   <g id="matplotlib.axis_1">
    <g id="xtick_1">
     <g id="line2d_1">
      <path clip-path="url(#p21df69f561)" d="M 123.835989 333.36 
L 123.835989 7.2 
" style="fill:none;stroke:#cccccc;stroke-linecap:round;stroke-opacity:0.9;"/>
     </g>
     <g id="text_1">
      <!-- 1950 -->
      <defs>
       <path d="M 37.25 0 
L 28.46875 0 
L 28.46875 56 
Q 25.296875 52.984375 20.140625 49.953125 
Q 14.984375 46.921875 10.890625 45.40625 
L 10.890625 53.90625 
Q 18.265625 57.375 23.78125 62.296875 
Q 29.296875 67.234375 31.59375 71.875 
L 37.25 71.875 
z
" id="ArialMT-49"/>
       <path d="M 5.46875 16.546875 
L 13.921875 17.328125 
Q 14.984375 11.375 18.015625 8.6875 
Q 21.046875 6 25.78125 6 
Q 29.828125 6 32.875 7.859375 
Q 35.9375 9.71875 37.890625 12.8125 
Q 39.84375 15.921875 41.15625 21.1875 
Q 42.484375 26.46875 42.484375 31.9375 
Q 42.484375 32.515625 42.4375 33.6875 
Q 39.796875 29.5 35.234375 26.875 
Q 30.671875 24.265625 25.34375 24.265625 
Q 16.453125 24.265625 10.296875 30.703125 
Q 4.15625 37.15625 4.15625 47.703125 
Q 4.15625 58.59375 10.578125 65.234375 
Q 17 71.875 26.65625 71.875 
Q 33.640625 71.875 39.421875 68.109375 
Q 45.21875 64.359375 48.21875 57.390625 
Q 51.21875 50.4375 51.21875 37.25 
Q 51.21875 23.53125 48.234375 15.40625 
Q 45.265625 7.28125 39.375 3.03125 
Q 33.5 -1.21875 25.59375 -1.21875 
Q 17.1875 -1.21875 11.859375 3.4375 
Q 6.546875 8.109375 5.46875 16.546875 
z
M 41.453125 48.140625 
Q 41.453125 55.71875 37.421875 60.15625 
Q 33.40625 64.59375 27.734375 64.59375 
Q 21.875 64.59375 17.53125 59.8125 
Q 13.1875 55.03125 13.1875 47.40625 
Q 13.1875 40.578125 17.3125 36.296875 
Q 21.4375 32.03125 27.484375 32.03125 
Q 33.59375 32.03125 37.515625 36.296875 
Q 41.453125 40.578125 41.453125 48.140625 
z
" id="ArialMT-57"/>
       <path d="M 4.15625 18.75 
L 13.375 19.53125 
Q 14.40625 12.796875 18.140625 9.390625 
Q 21.875 6 27.15625 6 
Q 33.5 6 37.890625 10.78125 
Q 42.28125 15.578125 42.28125 23.484375 
Q 42.28125 31 38.0625 35.34375 
Q 33.84375 39.703125 27 39.703125 
Q 22.75 39.703125 19.328125 37.765625 
Q 15.921875 35.84375 13.96875 32.765625 
L 5.71875 33.84375 
L 12.640625 70.609375 
L 48.25 70.609375 
L 48.25 62.203125 
L 19.671875 62.203125 
L 15.828125 42.96875 
Q 22.265625 47.46875 29.34375 47.46875 
Q 38.71875 47.46875 45.15625 40.96875 
Q 51.609375 34.46875 51.609375 24.265625 
Q 51.609375 14.546875 45.953125 7.46875 
Q 39.0625 -1.21875 27.15625 -1.21875 
Q 17.390625 -1.21875 11.203125 4.25 
Q 5.03125 9.71875 4.15625 18.75 
z
" id="ArialMT-53"/>
       <path d="M 4.15625 35.296875 
Q 4.15625 48 6.765625 55.734375 
Q 9.375 63.484375 14.515625 67.671875 
Q 19.671875 71.875 27.484375 71.875 
Q 33.25 71.875 37.59375 69.546875 
Q 41.9375 67.234375 44.765625 62.859375 
Q 47.609375 58.5 49.21875 52.21875 
Q 50.828125 45.953125 50.828125 35.296875 
Q 50.828125 22.703125 48.234375 14.96875 
Q 45.65625 7.234375 40.5 3 
Q 35.359375 -1.21875 27.484375 -1.21875 
Q 17.140625 -1.21875 11.234375 6.203125 
Q 4.15625 15.140625 4.15625 35.296875 
z
M 13.1875 35.296875 
Q 13.1875 17.671875 17.3125 11.828125 
Q 21.4375 6 27.484375 6 
Q 33.546875 6 37.671875 11.859375 
Q 41.796875 17.71875 41.796875 35.296875 
Q 41.796875 52.984375 37.671875 58.78125 
Q 33.546875 64.59375 27.390625 64.59375 
Q 21.34375 64.59375 17.71875 59.46875 
Q 13.1875 52.9375 13.1875 35.296875 
z
" id="ArialMT-48"/>
      </defs>
      <g style="fill:#262626;" transform="translate(108.265364 356.880937)scale(0.14 -0.14)">
       <use xlink:href="#ArialMT-49"/>
       <use x="55.615234" xlink:href="#ArialMT-57"/>
       <use x="111.230469" xlink:href="#ArialMT-53"/>
       <use x="166.845703" xlink:href="#ArialMT-48"/>
      </g>
     </g>
    </g>
    <g id="xtick_2">
     <g id="line2d_2">
      <path clip-path="url(#p21df69f561)" d="M 207.903786 333.36 
L 207.903786 7.2 
" style="fill:none;stroke:#cccccc;stroke-linecap:round;stroke-opacity:0.9;"/>
     </g>
     <g id="text_2">
      <!-- 1960 -->
      <defs>
       <path d="M 49.75 54.046875 
L 41.015625 53.375 
Q 39.84375 58.546875 37.703125 60.890625 
Q 34.125 64.65625 28.90625 64.65625 
Q 24.703125 64.65625 21.53125 62.3125 
Q 17.390625 59.28125 14.984375 53.46875 
Q 12.59375 47.65625 12.5 36.921875 
Q 15.671875 41.75 20.265625 44.09375 
Q 24.859375 46.4375 29.890625 46.4375 
Q 38.671875 46.4375 44.84375 39.96875 
Q 51.03125 33.5 51.03125 23.25 
Q 51.03125 16.5 48.125 10.71875 
Q 45.21875 4.9375 40.140625 1.859375 
Q 35.0625 -1.21875 28.609375 -1.21875 
Q 17.625 -1.21875 10.6875 6.859375 
Q 3.765625 14.9375 3.765625 33.5 
Q 3.765625 54.25 11.421875 63.671875 
Q 18.109375 71.875 29.4375 71.875 
Q 37.890625 71.875 43.28125 67.140625 
Q 48.6875 62.40625 49.75 54.046875 
z
M 13.875 23.1875 
Q 13.875 18.65625 15.796875 14.5 
Q 17.71875 10.359375 21.1875 8.171875 
Q 24.65625 6 28.46875 6 
Q 34.03125 6 38.03125 10.484375 
Q 42.046875 14.984375 42.046875 22.703125 
Q 42.046875 30.125 38.078125 34.390625 
Q 34.125 38.671875 28.125 38.671875 
Q 22.171875 38.671875 18.015625 34.390625 
Q 13.875 30.125 13.875 23.1875 
z
" id="ArialMT-54"/>
      </defs>
      <g style="fill:#262626;" transform="translate(192.333161 356.880937)scale(0.14 -0.14)">
       <use xlink:href="#ArialMT-49"/>
       <use x="55.615234" xlink:href="#ArialMT-57"/>
       <use x="111.230469" xlink:href="#ArialMT-54"/>
       <use x="166.845703" xlink:href="#ArialMT-48"/>
      </g>
     </g>
    </g>
    <g id="xtick_3">
     <g id="line2d_3">
      <path clip-path="url(#p21df69f561)" d="M 291.971583 333.36 
L 291.971583 7.2 
" style="fill:none;stroke:#cccccc;stroke-linecap:round;stroke-opacity:0.9;"/>
     </g>
     <g id="text_3">
      <!-- 1970 -->
      <defs>
       <path d="M 4.734375 62.203125 
L 4.734375 70.65625 
L 51.078125 70.65625 
L 51.078125 63.8125 
Q 44.234375 56.546875 37.515625 44.484375 
Q 30.8125 32.421875 27.15625 19.671875 
Q 24.515625 10.6875 23.78125 0 
L 14.75 0 
Q 14.890625 8.453125 18.0625 20.40625 
Q 21.234375 32.375 27.171875 43.484375 
Q 33.109375 54.59375 39.796875 62.203125 
z
" id="ArialMT-55"/>
      </defs>
      <g style="fill:#262626;" transform="translate(276.400958 356.880937)scale(0.14 -0.14)">
       <use xlink:href="#ArialMT-49"/>
       <use x="55.615234" xlink:href="#ArialMT-57"/>
       <use x="111.230469" xlink:href="#ArialMT-55"/>
       <use x="166.845703" xlink:href="#ArialMT-48"/>
      </g>
     </g>
    </g>
    <g id="xtick_4">
     <g id="line2d_4">
      <path clip-path="url(#p21df69f561)" d="M 376.039379 333.36 
L 376.039379 7.2 
" style="fill:none;stroke:#cccccc;stroke-linecap:round;stroke-opacity:0.9;"/>
     </g>
     <g id="text_4">
      <!-- 1980 -->
      <defs>
       <path d="M 17.671875 38.8125 
Q 12.203125 40.828125 9.5625 44.53125 
Q 6.9375 48.25 6.9375 53.421875 
Q 6.9375 61.234375 12.546875 66.546875 
Q 18.171875 71.875 27.484375 71.875 
Q 36.859375 71.875 42.578125 66.421875 
Q 48.296875 60.984375 48.296875 53.171875 
Q 48.296875 48.1875 45.671875 44.5 
Q 43.0625 40.828125 37.75 38.8125 
Q 44.34375 36.671875 47.78125 31.875 
Q 51.21875 27.09375 51.21875 20.453125 
Q 51.21875 11.28125 44.71875 5.03125 
Q 38.234375 -1.21875 27.640625 -1.21875 
Q 17.046875 -1.21875 10.546875 5.046875 
Q 4.046875 11.328125 4.046875 20.703125 
Q 4.046875 27.6875 7.59375 32.390625 
Q 11.140625 37.109375 17.671875 38.8125 
z
M 15.921875 53.71875 
Q 15.921875 48.640625 19.1875 45.40625 
Q 22.46875 42.1875 27.6875 42.1875 
Q 32.765625 42.1875 36.015625 45.375 
Q 39.265625 48.578125 39.265625 53.21875 
Q 39.265625 58.0625 35.90625 61.359375 
Q 32.5625 64.65625 27.59375 64.65625 
Q 22.5625 64.65625 19.234375 61.421875 
Q 15.921875 58.203125 15.921875 53.71875 
z
M 13.09375 20.65625 
Q 13.09375 16.890625 14.875 13.375 
Q 16.65625 9.859375 20.171875 7.921875 
Q 23.6875 6 27.734375 6 
Q 34.03125 6 38.125 10.046875 
Q 42.234375 14.109375 42.234375 20.359375 
Q 42.234375 26.703125 38.015625 30.859375 
Q 33.796875 35.015625 27.4375 35.015625 
Q 21.234375 35.015625 17.15625 30.90625 
Q 13.09375 26.8125 13.09375 20.65625 
z
" id="ArialMT-56"/>
      </defs>
      <g style="fill:#262626;" transform="translate(360.468754 356.880937)scale(0.14 -0.14)">
       <use xlink:href="#ArialMT-49"/>
       <use x="55.615234" xlink:href="#ArialMT-57"/>
       <use x="111.230469" xlink:href="#ArialMT-56"/>
       <use x="166.845703" xlink:href="#ArialMT-48"/>
      </g>
     </g>
    </g>
    <g id="xtick_5">
     <g id="line2d_5">
      <path clip-path="url(#p21df69f561)" d="M 460.107176 333.36 
L 460.107176 7.2 
" style="fill:none;stroke:#cccccc;stroke-linecap:round;stroke-opacity:0.9;"/>
     </g>
     <g id="text_5">
      <!-- 1990 -->
      <g style="fill:#262626;" transform="translate(444.536551 356.880937)scale(0.14 -0.14)">
       <use xlink:href="#ArialMT-49"/>
       <use x="55.615234" xlink:href="#ArialMT-57"/>
       <use x="111.230469" xlink:href="#ArialMT-57"/>
       <use x="166.845703" xlink:href="#ArialMT-48"/>
      </g>
     </g>
    </g>
    <g id="xtick_6">
     <g id="line2d_6">
      <path clip-path="url(#p21df69f561)" d="M 544.174972 333.36 
L 544.174972 7.2 
" style="fill:none;stroke:#cccccc;stroke-linecap:round;stroke-opacity:0.9;"/>
     </g>
     <g id="text_6">
      <!-- 2000 -->
      <defs>
       <path d="M 50.34375 8.453125 
L 50.34375 0 
L 3.03125 0 
Q 2.9375 3.171875 4.046875 6.109375 
Q 5.859375 10.9375 9.828125 15.625 
Q 13.8125 20.3125 21.34375 26.46875 
Q 33.015625 36.03125 37.109375 41.625 
Q 41.21875 47.21875 41.21875 52.203125 
Q 41.21875 57.421875 37.46875 61 
Q 33.734375 64.59375 27.734375 64.59375 
Q 21.390625 64.59375 17.578125 60.78125 
Q 13.765625 56.984375 13.71875 50.25 
L 4.6875 51.171875 
Q 5.609375 61.28125 11.65625 66.578125 
Q 17.71875 71.875 27.9375 71.875 
Q 38.234375 71.875 44.234375 66.15625 
Q 50.25 60.453125 50.25 52 
Q 50.25 47.703125 48.484375 43.546875 
Q 46.734375 39.40625 42.65625 34.8125 
Q 38.578125 30.21875 29.109375 22.21875 
Q 21.1875 15.578125 18.9375 13.203125 
Q 16.703125 10.84375 15.234375 8.453125 
z
" id="ArialMT-50"/>
      </defs>
      <g style="fill:#262626;" transform="translate(528.604347 356.880937)scale(0.14 -0.14)">
       <use xlink:href="#ArialMT-50"/>
       <use x="55.615234" xlink:href="#ArialMT-48"/>
       <use x="111.230469" xlink:href="#ArialMT-48"/>
       <use x="166.845703" xlink:href="#ArialMT-48"/>
      </g>
     </g>
    </g>
    <g id="xtick_7">
     <g id="line2d_7">
      <path clip-path="url(#p21df69f561)" d="M 628.242769 333.36 
L 628.242769 7.2 
" style="fill:none;stroke:#cccccc;stroke-linecap:round;stroke-opacity:0.9;"/>
     </g>
     <g id="text_7">
      <!-- 2010 -->
      <g style="fill:#262626;" transform="translate(612.672144 356.880937)scale(0.14 -0.14)">
       <use xlink:href="#ArialMT-50"/>
       <use x="55.615234" xlink:href="#ArialMT-48"/>
       <use x="111.230469" xlink:href="#ArialMT-49"/>
       <use x="166.845703" xlink:href="#ArialMT-48"/>
      </g>
     </g>
    </g>
    <g id="xtick_8">
     <g id="line2d_8">
      <path clip-path="url(#p21df69f561)" d="M 712.310566 333.36 
L 712.310566 7.2 
" style="fill:none;stroke:#cccccc;stroke-linecap:round;stroke-opacity:0.9;"/>
     </g>
     <g id="text_8">
      <!-- 2020 -->
      <g style="fill:#262626;" transform="translate(696.739941 356.880937)scale(0.14 -0.14)">
       <use xlink:href="#ArialMT-50"/>
       <use x="55.615234" xlink:href="#ArialMT-48"/>
       <use x="111.230469" xlink:href="#ArialMT-50"/>
       <use x="166.845703" xlink:href="#ArialMT-48"/>
      </g>
     </g>
    </g>
    <g id="text_9">
     <!-- Season -->
     <defs>
      <path d="M 4.5 23 
L 13.421875 23.78125 
Q 14.0625 18.40625 16.375 14.96875 
Q 18.703125 11.53125 23.578125 9.40625 
Q 28.46875 7.28125 34.578125 7.28125 
Q 39.984375 7.28125 44.140625 8.890625 
Q 48.296875 10.5 50.3125 13.296875 
Q 52.34375 16.109375 52.34375 19.4375 
Q 52.34375 22.796875 50.390625 25.3125 
Q 48.4375 27.828125 43.953125 29.546875 
Q 41.0625 30.671875 31.203125 33.03125 
Q 21.34375 35.40625 17.390625 37.5 
Q 12.25 40.1875 9.734375 44.15625 
Q 7.234375 48.140625 7.234375 53.078125 
Q 7.234375 58.5 10.296875 63.203125 
Q 13.375 67.921875 19.28125 70.359375 
Q 25.203125 72.796875 32.421875 72.796875 
Q 40.375 72.796875 46.453125 70.234375 
Q 52.546875 67.671875 55.8125 62.6875 
Q 59.078125 57.71875 59.328125 51.421875 
L 50.25 50.734375 
Q 49.515625 57.515625 45.28125 60.984375 
Q 41.0625 64.453125 32.8125 64.453125 
Q 24.21875 64.453125 20.28125 61.296875 
Q 16.359375 58.15625 16.359375 53.71875 
Q 16.359375 49.859375 19.140625 47.359375 
Q 21.875 44.875 33.421875 42.265625 
Q 44.96875 39.65625 49.265625 37.703125 
Q 55.515625 34.8125 58.484375 30.390625 
Q 61.46875 25.984375 61.46875 20.21875 
Q 61.46875 14.5 58.203125 9.4375 
Q 54.9375 4.390625 48.796875 1.578125 
Q 42.671875 -1.21875 35.015625 -1.21875 
Q 25.296875 -1.21875 18.71875 1.609375 
Q 12.15625 4.4375 8.421875 10.125 
Q 4.6875 15.828125 4.5 23 
z
" id="ArialMT-83"/>
      <path d="M 42.09375 16.703125 
L 51.171875 15.578125 
Q 49.03125 7.625 43.21875 3.21875 
Q 37.40625 -1.171875 28.375 -1.171875 
Q 17 -1.171875 10.328125 5.828125 
Q 3.65625 12.84375 3.65625 25.484375 
Q 3.65625 38.578125 10.390625 45.796875 
Q 17.140625 53.03125 27.875 53.03125 
Q 38.28125 53.03125 44.875 45.953125 
Q 51.46875 38.875 51.46875 26.03125 
Q 51.46875 25.25 51.421875 23.6875 
L 12.75 23.6875 
Q 13.234375 15.140625 17.578125 10.59375 
Q 21.921875 6.0625 28.421875 6.0625 
Q 33.25 6.0625 36.671875 8.59375 
Q 40.09375 11.140625 42.09375 16.703125 
z
M 13.234375 30.90625 
L 42.1875 30.90625 
Q 41.609375 37.453125 38.875 40.71875 
Q 34.671875 45.796875 27.984375 45.796875 
Q 21.921875 45.796875 17.796875 41.75 
Q 13.671875 37.703125 13.234375 30.90625 
z
" id="ArialMT-101"/>
      <path d="M 40.4375 6.390625 
Q 35.546875 2.25 31.03125 0.53125 
Q 26.515625 -1.171875 21.34375 -1.171875 
Q 12.796875 -1.171875 8.203125 3 
Q 3.609375 7.171875 3.609375 13.671875 
Q 3.609375 17.484375 5.34375 20.625 
Q 7.078125 23.78125 9.890625 25.6875 
Q 12.703125 27.59375 16.21875 28.5625 
Q 18.796875 29.25 24.03125 29.890625 
Q 34.671875 31.15625 39.703125 32.90625 
Q 39.75 34.71875 39.75 35.203125 
Q 39.75 40.578125 37.25 42.78125 
Q 33.890625 45.75 27.25 45.75 
Q 21.046875 45.75 18.09375 43.578125 
Q 15.140625 41.40625 13.71875 35.890625 
L 5.125 37.0625 
Q 6.296875 42.578125 8.984375 45.96875 
Q 11.671875 49.359375 16.75 51.1875 
Q 21.828125 53.03125 28.515625 53.03125 
Q 35.15625 53.03125 39.296875 51.46875 
Q 43.453125 49.90625 45.40625 47.53125 
Q 47.359375 45.171875 48.140625 41.546875 
Q 48.578125 39.3125 48.578125 33.453125 
L 48.578125 21.734375 
Q 48.578125 9.46875 49.140625 6.21875 
Q 49.703125 2.984375 51.375 0 
L 42.1875 0 
Q 40.828125 2.734375 40.4375 6.390625 
z
M 39.703125 26.03125 
Q 34.90625 24.078125 25.34375 22.703125 
Q 19.921875 21.921875 17.671875 20.9375 
Q 15.4375 19.96875 14.203125 18.09375 
Q 12.984375 16.21875 12.984375 13.921875 
Q 12.984375 10.40625 15.640625 8.0625 
Q 18.3125 5.71875 23.4375 5.71875 
Q 28.515625 5.71875 32.46875 7.9375 
Q 36.421875 10.15625 38.28125 14.015625 
Q 39.703125 17 39.703125 22.796875 
z
" id="ArialMT-97"/>
      <path d="M 3.078125 15.484375 
L 11.765625 16.84375 
Q 12.5 11.625 15.84375 8.84375 
Q 19.1875 6.0625 25.203125 6.0625 
Q 31.25 6.0625 34.171875 8.515625 
Q 37.109375 10.984375 37.109375 14.3125 
Q 37.109375 17.28125 34.515625 19 
Q 32.71875 20.171875 25.53125 21.96875 
Q 15.875 24.421875 12.140625 26.203125 
Q 8.40625 27.984375 6.46875 31.125 
Q 4.546875 34.28125 4.546875 38.09375 
Q 4.546875 41.546875 6.125 44.5 
Q 7.71875 47.46875 10.453125 49.421875 
Q 12.5 50.921875 16.03125 51.96875 
Q 19.578125 53.03125 23.640625 53.03125 
Q 29.734375 53.03125 34.34375 51.265625 
Q 38.96875 49.515625 41.15625 46.5 
Q 43.359375 43.5 44.1875 38.484375 
L 35.59375 37.3125 
Q 35.015625 41.3125 32.203125 43.546875 
Q 29.390625 45.796875 24.265625 45.796875 
Q 18.21875 45.796875 15.625 43.796875 
Q 13.03125 41.796875 13.03125 39.109375 
Q 13.03125 37.40625 14.109375 36.03125 
Q 15.1875 34.625 17.484375 33.6875 
Q 18.796875 33.203125 25.25 31.453125 
Q 34.578125 28.953125 38.25 27.359375 
Q 41.9375 25.78125 44.03125 22.75 
Q 46.140625 19.734375 46.140625 15.234375 
Q 46.140625 10.84375 43.578125 6.953125 
Q 41.015625 3.078125 36.171875 0.953125 
Q 31.34375 -1.171875 25.25 -1.171875 
Q 15.140625 -1.171875 9.84375 3.03125 
Q 4.546875 7.234375 3.078125 15.484375 
z
" id="ArialMT-115"/>
      <path d="M 3.328125 25.921875 
Q 3.328125 40.328125 11.328125 47.265625 
Q 18.015625 53.03125 27.640625 53.03125 
Q 38.328125 53.03125 45.109375 46.015625 
Q 51.90625 39.015625 51.90625 26.65625 
Q 51.90625 16.65625 48.90625 10.90625 
Q 45.90625 5.171875 40.15625 2 
Q 34.421875 -1.171875 27.640625 -1.171875 
Q 16.75 -1.171875 10.03125 5.8125 
Q 3.328125 12.796875 3.328125 25.921875 
z
M 12.359375 25.921875 
Q 12.359375 15.96875 16.703125 11.015625 
Q 21.046875 6.0625 27.640625 6.0625 
Q 34.1875 6.0625 38.53125 11.03125 
Q 42.875 16.015625 42.875 26.21875 
Q 42.875 35.84375 38.5 40.796875 
Q 34.125 45.75 27.640625 45.75 
Q 21.046875 45.75 16.703125 40.8125 
Q 12.359375 35.890625 12.359375 25.921875 
z
" id="ArialMT-111"/>
      <path d="M 6.59375 0 
L 6.59375 51.859375 
L 14.5 51.859375 
L 14.5 44.484375 
Q 20.21875 53.03125 31 53.03125 
Q 35.6875 53.03125 39.625 51.34375 
Q 43.5625 49.65625 45.515625 46.921875 
Q 47.46875 44.1875 48.25 40.4375 
Q 48.734375 37.984375 48.734375 31.890625 
L 48.734375 0 
L 39.9375 0 
L 39.9375 31.546875 
Q 39.9375 36.921875 38.90625 39.578125 
Q 37.890625 42.234375 35.28125 43.8125 
Q 32.671875 45.40625 29.15625 45.40625 
Q 23.53125 45.40625 19.453125 41.84375 
Q 15.375 38.28125 15.375 28.328125 
L 15.375 0 
z
" id="ArialMT-110"/>
     </defs>
     <g style="fill:#262626;" transform="translate(365.836313 375.688562)scale(0.168 -0.168)">
      <use xlink:href="#ArialMT-83"/>
      <use x="66.699219" xlink:href="#ArialMT-101"/>
      <use x="122.314453" xlink:href="#ArialMT-97"/>
      <use x="177.929688" xlink:href="#ArialMT-115"/>
      <use x="227.929688" xlink:href="#ArialMT-111"/>
      <use x="283.544922" xlink:href="#ArialMT-110"/>
     </g>
    </g>
   </g>
   <g id="matplotlib.axis_2">
    <g id="ytick_1">
     <g id="line2d_9">
      <path clip-path="url(#p21df69f561)" d="M 59.524125 302.92204 
L 729.124125 302.92204 
" style="fill:none;stroke:#cccccc;stroke-linecap:round;stroke-opacity:0.9;"/>
     </g>
     <g id="text_10">
      <!-- 0.4 -->
      <defs>
       <path d="M 9.078125 0 
L 9.078125 10.015625 
L 19.09375 10.015625 
L 19.09375 0 
z
" id="ArialMT-46"/>
       <path d="M 32.328125 0 
L 32.328125 17.140625 
L 1.265625 17.140625 
L 1.265625 25.203125 
L 33.9375 71.578125 
L 41.109375 71.578125 
L 41.109375 25.203125 
L 50.78125 25.203125 
L 50.78125 17.140625 
L 41.109375 17.140625 
L 41.109375 0 
z
M 32.328125 25.203125 
L 32.328125 57.46875 
L 9.90625 25.203125 
z
" id="ArialMT-52"/>
      </defs>
      <g style="fill:#262626;" transform="translate(26.564125 307.932509)scale(0.14 -0.14)">
       <use xlink:href="#ArialMT-48"/>
       <use x="55.615234" xlink:href="#ArialMT-46"/>
       <use x="83.398438" xlink:href="#ArialMT-52"/>
      </g>
     </g>
    </g>
    <g id="ytick_2">
     <g id="line2d_10">
      <path clip-path="url(#p21df69f561)" d="M 59.524125 257.759171 
L 729.124125 257.759171 
" style="fill:none;stroke:#cccccc;stroke-linecap:round;stroke-opacity:0.9;"/>
     </g>
     <g id="text_11">
      <!-- 0.5 -->
      <g style="fill:#262626;" transform="translate(26.564125 262.76964)scale(0.14 -0.14)">
       <use xlink:href="#ArialMT-48"/>
       <use x="55.615234" xlink:href="#ArialMT-46"/>
       <use x="83.398438" xlink:href="#ArialMT-53"/>
      </g>
     </g>
    </g>
    <g id="ytick_3">
     <g id="line2d_11">
      <path clip-path="url(#p21df69f561)" d="M 59.524125 212.596301 
L 729.124125 212.596301 
" style="fill:none;stroke:#cccccc;stroke-linecap:round;stroke-opacity:0.9;"/>
     </g>
     <g id="text_12">
      <!-- 0.6 -->
      <g style="fill:#262626;" transform="translate(26.564125 217.60677)scale(0.14 -0.14)">
       <use xlink:href="#ArialMT-48"/>
       <use x="55.615234" xlink:href="#ArialMT-46"/>
       <use x="83.398438" xlink:href="#ArialMT-54"/>
      </g>
     </g>
    </g>
    <g id="ytick_4">
     <g id="line2d_12">
      <path clip-path="url(#p21df69f561)" d="M 59.524125 167.433432 
L 729.124125 167.433432 
" style="fill:none;stroke:#cccccc;stroke-linecap:round;stroke-opacity:0.9;"/>
     </g>
     <g id="text_13">
      <!-- 0.7 -->
      <g style="fill:#262626;" transform="translate(26.564125 172.4439)scale(0.14 -0.14)">
       <use xlink:href="#ArialMT-48"/>
       <use x="55.615234" xlink:href="#ArialMT-46"/>
       <use x="83.398438" xlink:href="#ArialMT-55"/>
      </g>
     </g>
    </g>
    <g id="ytick_5">
     <g id="line2d_13">
      <path clip-path="url(#p21df69f561)" d="M 59.524125 122.270562 
L 729.124125 122.270562 
" style="fill:none;stroke:#cccccc;stroke-linecap:round;stroke-opacity:0.9;"/>
     </g>
     <g id="text_14">
      <!-- 0.8 -->
      <g style="fill:#262626;" transform="translate(26.564125 127.281031)scale(0.14 -0.14)">
       <use xlink:href="#ArialMT-48"/>
       <use x="55.615234" xlink:href="#ArialMT-46"/>
       <use x="83.398438" xlink:href="#ArialMT-56"/>
      </g>
     </g>
    </g>
    <g id="ytick_6">
     <g id="line2d_14">
      <path clip-path="url(#p21df69f561)" d="M 59.524125 77.107692 
L 729.124125 77.107692 
" style="fill:none;stroke:#cccccc;stroke-linecap:round;stroke-opacity:0.9;"/>
     </g>
     <g id="text_15">
      <!-- 0.9 -->
      <g style="fill:#262626;" transform="translate(26.564125 82.118161)scale(0.14 -0.14)">
       <use xlink:href="#ArialMT-48"/>
       <use x="55.615234" xlink:href="#ArialMT-46"/>
       <use x="83.398438" xlink:href="#ArialMT-57"/>
      </g>
     </g>
    </g>
    <g id="ytick_7">
     <g id="line2d_15">
      <path clip-path="url(#p21df69f561)" d="M 59.524125 31.944823 
L 729.124125 31.944823 
" style="fill:none;stroke:#cccccc;stroke-linecap:round;stroke-opacity:0.9;"/>
     </g>
     <g id="text_16">
      <!-- 1.0 -->
      <g style="fill:#262626;" transform="translate(26.564125 36.955292)scale(0.14 -0.14)">
       <use xlink:href="#ArialMT-49"/>
       <use x="55.615234" xlink:href="#ArialMT-46"/>
       <use x="83.398438" xlink:href="#ArialMT-48"/>
      </g>
     </g>
    </g>
    <g id="text_17">
     <!-- Expected points -->
     <defs>
      <path d="M 7.90625 0 
L 7.90625 71.578125 
L 59.671875 71.578125 
L 59.671875 63.140625 
L 17.390625 63.140625 
L 17.390625 41.21875 
L 56.984375 41.21875 
L 56.984375 32.8125 
L 17.390625 32.8125 
L 17.390625 8.453125 
L 61.328125 8.453125 
L 61.328125 0 
z
" id="ArialMT-69"/>
      <path d="M 0.734375 0 
L 19.671875 26.953125 
L 2.15625 51.859375 
L 13.140625 51.859375 
L 21.09375 39.703125 
Q 23.34375 36.234375 24.703125 33.890625 
Q 26.859375 37.109375 28.65625 39.59375 
L 37.40625 51.859375 
L 47.90625 51.859375 
L 29.984375 27.4375 
L 49.265625 0 
L 38.484375 0 
L 27.828125 16.109375 
L 25 20.453125 
L 11.375 0 
z
" id="ArialMT-120"/>
      <path d="M 6.59375 -19.875 
L 6.59375 51.859375 
L 14.59375 51.859375 
L 14.59375 45.125 
Q 17.4375 49.078125 21 51.046875 
Q 24.5625 53.03125 29.640625 53.03125 
Q 36.28125 53.03125 41.359375 49.609375 
Q 46.4375 46.1875 49.015625 39.953125 
Q 51.609375 33.734375 51.609375 26.3125 
Q 51.609375 18.359375 48.75 11.984375 
Q 45.90625 5.609375 40.453125 2.21875 
Q 35.015625 -1.171875 29 -1.171875 
Q 24.609375 -1.171875 21.109375 0.6875 
Q 17.625 2.546875 15.375 5.375 
L 15.375 -19.875 
z
M 14.546875 25.640625 
Q 14.546875 15.625 18.59375 10.84375 
Q 22.65625 6.0625 28.421875 6.0625 
Q 34.28125 6.0625 38.453125 11.015625 
Q 42.625 15.96875 42.625 26.375 
Q 42.625 36.28125 38.546875 41.203125 
Q 34.46875 46.140625 28.8125 46.140625 
Q 23.1875 46.140625 18.859375 40.890625 
Q 14.546875 35.640625 14.546875 25.640625 
z
" id="ArialMT-112"/>
      <path d="M 40.4375 19 
L 49.078125 17.875 
Q 47.65625 8.9375 41.8125 3.875 
Q 35.984375 -1.171875 27.484375 -1.171875 
Q 16.84375 -1.171875 10.375 5.78125 
Q 3.90625 12.75 3.90625 25.734375 
Q 3.90625 34.125 6.6875 40.421875 
Q 9.46875 46.734375 15.15625 49.875 
Q 20.84375 53.03125 27.546875 53.03125 
Q 35.984375 53.03125 41.359375 48.75 
Q 46.734375 44.484375 48.25 36.625 
L 39.703125 35.296875 
Q 38.484375 40.53125 35.375 43.15625 
Q 32.28125 45.796875 27.875 45.796875 
Q 21.234375 45.796875 17.078125 41.03125 
Q 12.9375 36.28125 12.9375 25.984375 
Q 12.9375 15.53125 16.9375 10.796875 
Q 20.953125 6.0625 27.390625 6.0625 
Q 32.5625 6.0625 36.03125 9.234375 
Q 39.5 12.40625 40.4375 19 
z
" id="ArialMT-99"/>
      <path d="M 25.78125 7.859375 
L 27.046875 0.09375 
Q 23.34375 -0.6875 20.40625 -0.6875 
Q 15.625 -0.6875 12.984375 0.828125 
Q 10.359375 2.34375 9.28125 4.8125 
Q 8.203125 7.28125 8.203125 15.1875 
L 8.203125 45.015625 
L 1.765625 45.015625 
L 1.765625 51.859375 
L 8.203125 51.859375 
L 8.203125 64.703125 
L 16.9375 69.96875 
L 16.9375 51.859375 
L 25.78125 51.859375 
L 25.78125 45.015625 
L 16.9375 45.015625 
L 16.9375 14.703125 
Q 16.9375 10.9375 17.40625 9.859375 
Q 17.875 8.796875 18.921875 8.15625 
Q 19.96875 7.515625 21.921875 7.515625 
Q 23.390625 7.515625 25.78125 7.859375 
z
" id="ArialMT-116"/>
      <path d="M 40.234375 0 
L 40.234375 6.546875 
Q 35.296875 -1.171875 25.734375 -1.171875 
Q 19.53125 -1.171875 14.328125 2.25 
Q 9.125 5.671875 6.265625 11.796875 
Q 3.421875 17.921875 3.421875 25.875 
Q 3.421875 33.640625 6 39.96875 
Q 8.59375 46.296875 13.765625 49.65625 
Q 18.953125 53.03125 25.34375 53.03125 
Q 30.03125 53.03125 33.6875 51.046875 
Q 37.359375 49.078125 39.65625 45.90625 
L 39.65625 71.578125 
L 48.390625 71.578125 
L 48.390625 0 
z
M 12.453125 25.875 
Q 12.453125 15.921875 16.640625 10.984375 
Q 20.84375 6.0625 26.5625 6.0625 
Q 32.328125 6.0625 36.34375 10.765625 
Q 40.375 15.484375 40.375 25.140625 
Q 40.375 35.796875 36.265625 40.765625 
Q 32.171875 45.75 26.171875 45.75 
Q 20.3125 45.75 16.375 40.96875 
Q 12.453125 36.1875 12.453125 25.875 
z
" id="ArialMT-100"/>
      <path id="ArialMT-32"/>
      <path d="M 6.640625 61.46875 
L 6.640625 71.578125 
L 15.4375 71.578125 
L 15.4375 61.46875 
z
M 6.640625 0 
L 6.640625 51.859375 
L 15.4375 51.859375 
L 15.4375 0 
z
" id="ArialMT-105"/>
     </defs>
     <g style="fill:#262626;" transform="translate(19.225125 230.048625)rotate(-90)scale(0.168 -0.168)">
      <use xlink:href="#ArialMT-69"/>
      <use x="66.699219" xlink:href="#ArialMT-120"/>
      <use x="116.699219" xlink:href="#ArialMT-112"/>
      <use x="172.314453" xlink:href="#ArialMT-101"/>
      <use x="227.929688" xlink:href="#ArialMT-99"/>
      <use x="277.929688" xlink:href="#ArialMT-116"/>
      <use x="305.712891" xlink:href="#ArialMT-101"/>
      <use x="361.328125" xlink:href="#ArialMT-100"/>
      <use x="416.943359" xlink:href="#ArialMT-32"/>
      <use x="444.726562" xlink:href="#ArialMT-112"/>
      <use x="500.341797" xlink:href="#ArialMT-111"/>
      <use x="555.957031" xlink:href="#ArialMT-105"/>
      <use x="578.173828" xlink:href="#ArialMT-110"/>
      <use x="633.789062" xlink:href="#ArialMT-116"/>
      <use x="661.572266" xlink:href="#ArialMT-115"/>
     </g>
    </g>
   </g>
   <g id="PolyCollection_1">
    <defs>
     <path d="M 90.208871 -138.253441 
L 90.208871 -120.079369 
L 98.61565 -120.8651 
L 107.02243 -170.783019 
L 115.42921 -181.712602 
L 123.835989 -198.051798 
L 132.242769 -205.599117 
L 140.649549 -198.021037 
L 149.056328 -196.166971 
L 157.463108 -201.381583 
L 165.869888 -229.366517 
L 174.276667 -215.175032 
L 182.683447 -207.395724 
L 191.090227 -238.171058 
L 199.497006 -234.541917 
L 207.903786 -248.733857 
L 216.310566 -243.437779 
L 224.717345 -264.15765 
L 233.124125 -254.367812 
L 241.530905 -252.735872 
L 249.937684 -261.606117 
L 258.344464 -272.465364 
L 266.751244 -270.117175 
L 275.158023 -271.066696 
L 283.564803 -295.53089 
L 291.971583 -273.685238 
L 300.378362 -278.759999 
L 308.785142 -276.335219 
L 317.191922 -290.854809 
L 325.598701 -288.598118 
L 334.005481 -288.055144 
L 342.412261 -291.800551 
L 350.81904 -291.218622 
L 359.22582 -312.023537 
L 367.6326 -313.734971 
L 376.039379 -307.416559 
L 384.446159 -324.900367 
L 392.852939 -316.870712 
L 401.259718 -324.665193 
L 409.666498 -313.622562 
L 418.073278 -309.988018 
L 426.480057 -317.063952 
L 434.886837 -315.455769 
L 443.293617 -308.884225 
L 451.700396 -303.341009 
L 460.107176 -320.936612 
L 468.513956 -311.946541 
L 476.920735 -317.836046 
L 485.327515 -303.926737 
L 493.734294 -312.594293 
L 502.141074 -315.453881 
L 510.547854 -298.442102 
L 518.954633 -298.462605 
L 527.361413 -279.315269 
L 535.768193 -296.535493 
L 544.174972 -287.540615 
L 552.581752 -295.657656 
L 560.988532 -282.454853 
L 569.395311 -282.072414 
L 577.802091 -295.14722 
L 586.208871 -304.752327 
L 594.61565 -304.102402 
L 603.02243 -306.492876 
L 611.42921 -312.132135 
L 619.835989 -320.562204 
L 628.242769 -313.055567 
L 636.649549 -308.111199 
L 645.056328 -304.708982 
L 653.463108 -312.018815 
L 661.869888 -311.411097 
L 670.276667 -326.73788 
L 678.683447 -333.961768 
L 687.090227 -339.207675 
L 695.497006 -339.132276 
L 703.903786 -343.91742 
L 703.903786 -364.202108 
L 703.903786 -364.202108 
L 695.497006 -355.480334 
L 687.090227 -357.601497 
L 678.683447 -350.185795 
L 670.276667 -341.879581 
L 661.869888 -325.905044 
L 653.463108 -327.552893 
L 645.056328 -320.481434 
L 636.649549 -324.257064 
L 628.242769 -325.96017 
L 619.835989 -332.893546 
L 611.42921 -326.659298 
L 603.02243 -321.45819 
L 594.61565 -319.58972 
L 586.208871 -319.658809 
L 577.802091 -309.665888 
L 569.395311 -297.126611 
L 560.988532 -297.346439 
L 552.581752 -309.865452 
L 544.174972 -303.422132 
L 535.768193 -312.866636 
L 527.361413 -298.975416 
L 518.954633 -313.583712 
L 510.547854 -314.124028 
L 502.141074 -328.193502 
L 493.734294 -329.981626 
L 485.327515 -320.559103 
L 476.920735 -333.892618 
L 468.513956 -327.97169 
L 460.107176 -335.975573 
L 451.700396 -319.38605 
L 443.293617 -324.601587 
L 434.886837 -330.316386 
L 426.480057 -333.453342 
L 418.073278 -326.701219 
L 409.666498 -332.105726 
L 401.259718 -342.310543 
L 392.852939 -330.60988 
L 384.446159 -339.360259 
L 376.039379 -324.229133 
L 367.6326 -327.292745 
L 359.22582 -325.719836 
L 350.81904 -307.897932 
L 342.412261 -306.59471 
L 334.005481 -304.258145 
L 325.598701 -306.153462 
L 317.191922 -307.394585 
L 308.785142 -295.296666 
L 300.378362 -293.059958 
L 291.971583 -293.993962 
L 283.564803 -314.863705 
L 275.158023 -287.470273 
L 266.751244 -292.010607 
L 258.344464 -292.81735 
L 249.937684 -282.869364 
L 241.530905 -276.010561 
L 233.124125 -285.809961 
L 224.717345 -288.508167 
L 216.310566 -269.535546 
L 207.903786 -268.599138 
L 199.497006 -262.627961 
L 191.090227 -278.375879 
L 182.683447 -235.797281 
L 174.276667 -237.859668 
L 165.869888 -252.326593 
L 157.463108 -231.167304 
L 149.056328 -230.309649 
L 140.649549 -222.495536 
L 132.242769 -226.140086 
L 123.835989 -217.767363 
L 115.42921 -198.201976 
L 107.02243 -185.543089 
L 98.61565 -153.564447 
L 90.208871 -138.253441 
z
" id="m7c820aad3f" style="stroke:#165aa7;stroke-opacity:0.2;"/>
    </defs>
    <g clip-path="url(#p21df69f561)">
     <use style="fill:#165aa7;fill-opacity:0.2;stroke:#165aa7;stroke-opacity:0.2;" x="0" xlink:href="#m7c820aad3f" y="386.227562"/>
    </g>
   </g>
   <g id="PolyCollection_2">
    <defs>
     <path d="M 367.6326 -201.390231 
L 367.6326 -141.305454 
L 376.039379 -84.066862 
L 384.446159 -103.929583 
L 392.852939 -67.693017 
L 401.259718 -115.026306 
L 409.666498 -93.194055 
L 418.073278 -112.394543 
L 426.480057 -104.53253 
L 434.886837 -134.074915 
L 443.293617 -148.4347 
L 451.700396 -166.780344 
L 460.107176 -160.981644 
L 468.513956 -169.252658 
L 476.920735 -171.275854 
L 485.327515 -195.959057 
L 493.734294 -247.495483 
L 502.141074 -258.928558 
L 510.547854 -264.85723 
L 518.954633 -216.164632 
L 527.361413 -220.908061 
L 535.768193 -236.706197 
L 544.174972 -231.478692 
L 552.581752 -236.259588 
L 560.988532 -236.982018 
L 569.395311 -243.376498 
L 577.802091 -247.654983 
L 586.208871 -250.332277 
L 594.61565 -253.050912 
L 603.02243 -248.871486 
L 611.42921 -276.846472 
L 619.835989 -246.256587 
L 628.242769 -266.23768 
L 636.649549 -250.661582 
L 645.056328 -266.450265 
L 653.463108 -275.800049 
L 661.869888 -275.735565 
L 670.276667 -288.33881 
L 678.683447 -294.495528 
L 687.090227 -306.057015 
L 695.497006 -314.166254 
L 703.903786 -302.325538 
L 703.903786 -331.982629 
L 703.903786 -331.982629 
L 695.497006 -343.400099 
L 687.090227 -339.658422 
L 678.683447 -326.52499 
L 670.276667 -322.400719 
L 661.869888 -305.392278 
L 653.463108 -313.126365 
L 645.056328 -306.584832 
L 636.649549 -290.629145 
L 628.242769 -303.974889 
L 619.835989 -285.813047 
L 611.42921 -320.786747 
L 603.02243 -286.118962 
L 594.61565 -296.474695 
L 586.208871 -293.721615 
L 577.802091 -288.279683 
L 569.395311 -285.082567 
L 560.988532 -286.101828 
L 552.581752 -283.59938 
L 544.174972 -279.593133 
L 535.768193 -284.558586 
L 527.361413 -276.587503 
L 518.954633 -259.944571 
L 510.547854 -310.55512 
L 502.141074 -300.657212 
L 493.734294 -292.995833 
L 485.327515 -248.71553 
L 476.920735 -219.098362 
L 468.513956 -216.794714 
L 460.107176 -210.045467 
L 451.700396 -218.741323 
L 443.293617 -196.683877 
L 434.886837 -186.454293 
L 426.480057 -160.331932 
L 418.073278 -164.398101 
L 409.666498 -156.37557 
L 401.259718 -173.590539 
L 392.852939 -112.763008 
L 384.446159 -167.206517 
L 376.039379 -136.243497 
L 367.6326 -201.390231 
z
" id="m649f402104" style="stroke:#cb495c;stroke-opacity:0.2;"/>
    </defs>
    <g clip-path="url(#p21df69f561)">
     <use style="fill:#cb495c;fill-opacity:0.2;stroke:#cb495c;stroke-opacity:0.2;" x="0" xlink:href="#m649f402104" y="386.227562"/>
    </g>
   </g>
   <g id="line2d_16">
    <path clip-path="url(#p21df69f561)" d="M 90.208871 256.334685 
L 98.61565 249.042666 
L 107.02243 207.732915 
L 115.42921 196.449276 
L 123.835989 177.444333 
L 132.242769 170.673294 
L 140.649549 175.709553 
L 149.056328 172.939321 
L 157.463108 168.696768 
L 165.869888 145.206622 
L 174.276667 158.9896 
L 182.683447 163.737282 
L 191.090227 129.22311 
L 199.497006 136.79459 
L 207.903786 127.473083 
L 216.310566 128.887946 
L 224.717345 109.521163 
L 233.124125 116.31306 
L 241.530905 121.709786 
L 249.937684 113.111998 
L 258.344464 104.63398 
L 266.751244 104.441955 
L 275.158023 106.841257 
L 283.564803 81.183314 
L 291.971583 102.321672 
L 300.378362 100.206979 
L 308.785142 100.033161 
L 317.191922 86.631577 
L 325.598701 88.817855 
L 334.005481 89.876684 
L 342.412261 86.57942 
L 350.81904 86.55563 
L 359.22582 67.376521 
L 367.6326 65.628694 
L 376.039379 70.242777 
L 384.446159 53.712469 
L 392.852939 62.269413 
L 401.259718 52.939307 
L 409.666498 63.064193 
L 418.073278 67.336504 
L 426.480057 60.691654 
L 434.886837 63.342753 
L 443.293617 69.098414 
L 451.700396 74.547351 
L 460.107176 57.969588 
L 468.513956 65.967271 
L 476.920735 59.940808 
L 485.327515 73.964801 
L 493.734294 64.603363 
L 502.141074 64.479982 
L 510.547854 79.678467 
L 518.954633 80.143905 
L 527.361413 97.177355 
L 535.768193 81.513425 
L 544.174972 90.297004 
L 552.581752 83.21054 
L 560.988532 95.993757 
L 569.395311 96.384993 
L 577.802091 83.424082 
L 586.208871 73.812447 
L 594.61565 73.985615 
L 603.02243 72.399448 
L 611.42921 66.816002 
L 619.835989 59.534171 
L 628.242769 66.709694 
L 636.649549 69.831171 
L 645.056328 73.827968 
L 653.463108 66.373666 
L 661.869888 67.197976 
L 670.276667 52.051227 
L 678.683447 44.135303 
L 687.090227 38.182555 
L 695.497006 38.886762 
L 703.903786 32.083785 
" style="fill:none;stroke:#165aa7;stroke-linecap:round;stroke-width:1.5;"/>
   </g>
   <g id="line2d_17">
    <path clip-path="url(#p21df69f561)" d="M 367.6326 215.291508 
L 376.039379 276.184194 
L 384.446159 251.752315 
L 392.852939 296.520568 
L 401.259718 243.745517 
L 409.666498 261.923463 
L 418.073278 248.455458 
L 426.480057 254.596561 
L 434.886837 226.969836 
L 443.293617 214.194745 
L 451.700396 193.843592 
L 460.107176 201.226957 
L 468.513956 192.925701 
L 476.920735 191.337097 
L 485.327515 164.130006 
L 493.734294 116.228501 
L 502.141074 106.232812 
L 510.547854 98.456817 
L 518.954633 148.02489 
L 527.361413 139.239496 
L 535.768193 124.944815 
L 544.174972 131.619735 
L 552.581752 126.167486 
L 560.988532 123.984903 
L 569.395311 121.46751 
L 577.802091 118.519588 
L 586.208871 114.77887 
L 594.61565 112.124756 
L 603.02243 119.597666 
L 611.42921 87.196442 
L 619.835989 119.717318 
L 628.242769 101.192814 
L 636.649549 115.977581 
L 645.056328 101.118691 
L 653.463108 91.046823 
L 661.869888 95.466881 
L 670.276667 80.542474 
L 678.683447 75.539135 
L 687.090227 63.592832 
L 695.497006 56.720666 
L 703.903786 70.259005 
" style="fill:none;stroke:#cb495c;stroke-linecap:round;stroke-width:1.5;"/>
   </g>
   <g id="line2d_18">
    <path clip-path="url(#p21df69f561)" d="M 367.6326 333.36 
L 367.6326 7.2 
" style="fill:none;stroke:#000000;stroke-dasharray:5.55,2.4;stroke-dashoffset:0;stroke-opacity:0.7;stroke-width:1.5;"/>
   </g>
   <g id="line2d_19">
    <path clip-path="url(#p21df69f561)" d="M 493.734294 333.36 
L 493.734294 7.2 
" style="fill:none;stroke:#000000;stroke-dasharray:5.55,2.4;stroke-dashoffset:0;stroke-opacity:0.7;stroke-width:1.5;"/>
   </g>
   <g id="line2d_20">
    <path clip-path="url(#p21df69f561)" d="M 518.954633 333.36 
L 518.954633 7.2 
" style="fill:none;stroke:#000000;stroke-dasharray:5.55,2.4;stroke-dashoffset:0;stroke-opacity:0.7;stroke-width:1.5;"/>
   </g>
   <g id="text_18">
    <!-- 3 point line introduced -->
    <defs>
     <path d="M 4.203125 18.890625 
L 12.984375 20.0625 
Q 14.5 12.59375 18.140625 9.296875 
Q 21.78125 6 27 6 
Q 33.203125 6 37.46875 10.296875 
Q 41.75 14.59375 41.75 20.953125 
Q 41.75 27 37.796875 30.921875 
Q 33.84375 34.859375 27.734375 34.859375 
Q 25.25 34.859375 21.53125 33.890625 
L 22.515625 41.609375 
Q 23.390625 41.5 23.921875 41.5 
Q 29.546875 41.5 34.03125 44.421875 
Q 38.53125 47.359375 38.53125 53.46875 
Q 38.53125 58.296875 35.25 61.46875 
Q 31.984375 64.65625 26.8125 64.65625 
Q 21.6875 64.65625 18.265625 61.421875 
Q 14.84375 58.203125 13.875 51.765625 
L 5.078125 53.328125 
Q 6.6875 62.15625 12.390625 67.015625 
Q 18.109375 71.875 26.609375 71.875 
Q 32.46875 71.875 37.390625 69.359375 
Q 42.328125 66.84375 44.9375 62.5 
Q 47.5625 58.15625 47.5625 53.265625 
Q 47.5625 48.640625 45.0625 44.828125 
Q 42.578125 41.015625 37.703125 38.765625 
Q 44.046875 37.3125 47.5625 32.6875 
Q 51.078125 28.078125 51.078125 21.140625 
Q 51.078125 11.765625 44.234375 5.25 
Q 37.40625 -1.265625 26.953125 -1.265625 
Q 17.53125 -1.265625 11.296875 4.34375 
Q 5.078125 9.96875 4.203125 18.890625 
z
" id="ArialMT-51"/>
     <path d="M 6.390625 0 
L 6.390625 71.578125 
L 15.1875 71.578125 
L 15.1875 0 
z
" id="ArialMT-108"/>
     <path d="M 6.5 0 
L 6.5 51.859375 
L 14.40625 51.859375 
L 14.40625 44 
Q 17.4375 49.515625 20 51.265625 
Q 22.5625 53.03125 25.640625 53.03125 
Q 30.078125 53.03125 34.671875 50.203125 
L 31.640625 42.046875 
Q 28.421875 43.953125 25.203125 43.953125 
Q 22.3125 43.953125 20.015625 42.21875 
Q 17.71875 40.484375 16.75 37.40625 
Q 15.28125 32.71875 15.28125 27.15625 
L 15.28125 0 
z
" id="ArialMT-114"/>
     <path d="M 40.578125 0 
L 40.578125 7.625 
Q 34.515625 -1.171875 24.125 -1.171875 
Q 19.53125 -1.171875 15.546875 0.578125 
Q 11.578125 2.34375 9.640625 5 
Q 7.71875 7.671875 6.9375 11.53125 
Q 6.390625 14.109375 6.390625 19.734375 
L 6.390625 51.859375 
L 15.1875 51.859375 
L 15.1875 23.09375 
Q 15.1875 16.21875 15.71875 13.8125 
Q 16.546875 10.359375 19.234375 8.375 
Q 21.921875 6.390625 25.875 6.390625 
Q 29.828125 6.390625 33.296875 8.421875 
Q 36.765625 10.453125 38.203125 13.9375 
Q 39.65625 17.4375 39.65625 24.078125 
L 39.65625 51.859375 
L 48.4375 51.859375 
L 48.4375 0 
z
" id="ArialMT-117"/>
    </defs>
    <g style="fill:#262626;" transform="translate(224.717345 316.470901)scale(0.14 -0.14)">
     <use xlink:href="#ArialMT-51"/>
     <use x="55.615234" xlink:href="#ArialMT-32"/>
     <use x="83.398438" xlink:href="#ArialMT-112"/>
     <use x="139.013672" xlink:href="#ArialMT-111"/>
     <use x="194.628906" xlink:href="#ArialMT-105"/>
     <use x="216.845703" xlink:href="#ArialMT-110"/>
     <use x="272.460938" xlink:href="#ArialMT-116"/>
     <use x="300.244141" xlink:href="#ArialMT-32"/>
     <use x="328.027344" xlink:href="#ArialMT-108"/>
     <use x="350.244141" xlink:href="#ArialMT-105"/>
     <use x="372.460938" xlink:href="#ArialMT-110"/>
     <use x="428.076172" xlink:href="#ArialMT-101"/>
     <use x="483.691406" xlink:href="#ArialMT-32"/>
     <use x="511.474609" xlink:href="#ArialMT-105"/>
     <use x="533.691406" xlink:href="#ArialMT-110"/>
     <use x="589.306641" xlink:href="#ArialMT-116"/>
     <use x="617.089844" xlink:href="#ArialMT-114"/>
     <use x="650.390625" xlink:href="#ArialMT-111"/>
     <use x="706.005859" xlink:href="#ArialMT-100"/>
     <use x="761.621094" xlink:href="#ArialMT-117"/>
     <use x="817.236328" xlink:href="#ArialMT-99"/>
     <use x="867.236328" xlink:href="#ArialMT-101"/>
     <use x="922.851562" xlink:href="#ArialMT-100"/>
    </g>
   </g>
   <g id="patch_3">
    <path d="M 553.231907 278.686531 
Q 524.483564 279.485755 496.852823 280.253908 
" style="fill:none;stroke:#000000;stroke-linecap:round;"/>
    <path d="M 502.528472 282.897203 
L 496.852823 280.253908 
L 502.372849 277.299366 
" style="fill:none;stroke:#000000;stroke-linecap:round;"/>
   </g>
   <g id="text_19">
    <!-- 3 point line shortened -->
    <defs>
     <path d="M 6.59375 0 
L 6.59375 71.578125 
L 15.375 71.578125 
L 15.375 45.90625 
Q 21.53125 53.03125 30.90625 53.03125 
Q 36.671875 53.03125 40.921875 50.75 
Q 45.171875 48.484375 47 44.484375 
Q 48.828125 40.484375 48.828125 32.859375 
L 48.828125 0 
L 40.046875 0 
L 40.046875 32.859375 
Q 40.046875 39.453125 37.1875 42.453125 
Q 34.328125 45.453125 29.109375 45.453125 
Q 25.203125 45.453125 21.75 43.421875 
Q 18.3125 41.40625 16.84375 37.9375 
Q 15.375 34.46875 15.375 28.375 
L 15.375 0 
z
" id="ArialMT-104"/>
    </defs>
    <g style="fill:#262626;" transform="translate(557.734294 280.340606)scale(0.14 -0.14)">
     <use xlink:href="#ArialMT-51"/>
     <use x="55.615234" xlink:href="#ArialMT-32"/>
     <use x="83.398438" xlink:href="#ArialMT-112"/>
     <use x="139.013672" xlink:href="#ArialMT-111"/>
     <use x="194.628906" xlink:href="#ArialMT-105"/>
     <use x="216.845703" xlink:href="#ArialMT-110"/>
     <use x="272.460938" xlink:href="#ArialMT-116"/>
     <use x="300.244141" xlink:href="#ArialMT-32"/>
     <use x="328.027344" xlink:href="#ArialMT-108"/>
     <use x="350.244141" xlink:href="#ArialMT-105"/>
     <use x="372.460938" xlink:href="#ArialMT-110"/>
     <use x="428.076172" xlink:href="#ArialMT-101"/>
     <use x="483.691406" xlink:href="#ArialMT-32"/>
     <use x="511.474609" xlink:href="#ArialMT-115"/>
     <use x="561.474609" xlink:href="#ArialMT-104"/>
     <use x="617.089844" xlink:href="#ArialMT-111"/>
     <use x="672.705078" xlink:href="#ArialMT-114"/>
     <use x="706.005859" xlink:href="#ArialMT-116"/>
     <use x="733.789062" xlink:href="#ArialMT-101"/>
     <use x="789.404297" xlink:href="#ArialMT-110"/>
     <use x="845.019531" xlink:href="#ArialMT-101"/>
     <use x="900.634766" xlink:href="#ArialMT-100"/>
    </g>
   </g>
   <g id="patch_4">
    <path d="M 552.456156 234.375086 
Q 536.705287 234.752455 522.072132 235.103045 
" style="fill:none;stroke:#000000;stroke-linecap:round;"/>
    <path d="M 527.737591 237.768112 
L 522.072132 235.103045 
L 527.603461 232.169719 
" style="fill:none;stroke:#000000;stroke-linecap:round;"/>
   </g>
   <g id="text_20">
    <!-- 3 point line returned to original level -->
    <defs>
     <path d="M 4.984375 -4.296875 
L 13.53125 -5.5625 
Q 14.0625 -9.515625 16.5 -11.328125 
Q 19.78125 -13.765625 25.4375 -13.765625 
Q 31.546875 -13.765625 34.859375 -11.328125 
Q 38.1875 -8.890625 39.359375 -4.5 
Q 40.046875 -1.8125 39.984375 6.78125 
Q 34.234375 0 25.640625 0 
Q 14.9375 0 9.078125 7.71875 
Q 3.21875 15.4375 3.21875 26.21875 
Q 3.21875 33.640625 5.90625 39.90625 
Q 8.59375 46.1875 13.6875 49.609375 
Q 18.796875 53.03125 25.6875 53.03125 
Q 34.859375 53.03125 40.828125 45.609375 
L 40.828125 51.859375 
L 48.921875 51.859375 
L 48.921875 7.03125 
Q 48.921875 -5.078125 46.453125 -10.125 
Q 44 -15.1875 38.640625 -18.109375 
Q 33.296875 -21.046875 25.484375 -21.046875 
Q 16.21875 -21.046875 10.5 -16.875 
Q 4.78125 -12.703125 4.984375 -4.296875 
z
M 12.25 26.859375 
Q 12.25 16.65625 16.296875 11.96875 
Q 20.359375 7.28125 26.46875 7.28125 
Q 32.515625 7.28125 36.609375 11.9375 
Q 40.71875 16.609375 40.71875 26.5625 
Q 40.71875 36.078125 36.5 40.90625 
Q 32.28125 45.75 26.3125 45.75 
Q 20.453125 45.75 16.34375 40.984375 
Q 12.25 36.234375 12.25 26.859375 
z
" id="ArialMT-103"/>
     <path d="M 21 0 
L 1.265625 51.859375 
L 10.546875 51.859375 
L 21.6875 20.796875 
Q 23.484375 15.765625 25 10.359375 
Q 26.171875 14.453125 28.265625 20.21875 
L 39.796875 51.859375 
L 48.828125 51.859375 
L 29.203125 0 
z
" id="ArialMT-118"/>
    </defs>
    <g style="fill:#262626;" transform="translate(556.954633 235.177736)scale(0.14 -0.14)">
     <use xlink:href="#ArialMT-51"/>
     <use x="55.615234" xlink:href="#ArialMT-32"/>
     <use x="83.398438" xlink:href="#ArialMT-112"/>
     <use x="139.013672" xlink:href="#ArialMT-111"/>
     <use x="194.628906" xlink:href="#ArialMT-105"/>
     <use x="216.845703" xlink:href="#ArialMT-110"/>
     <use x="272.460938" xlink:href="#ArialMT-116"/>
     <use x="300.244141" xlink:href="#ArialMT-32"/>
     <use x="328.027344" xlink:href="#ArialMT-108"/>
     <use x="350.244141" xlink:href="#ArialMT-105"/>
     <use x="372.460938" xlink:href="#ArialMT-110"/>
     <use x="428.076172" xlink:href="#ArialMT-101"/>
     <use x="483.691406" xlink:href="#ArialMT-32"/>
     <use x="511.474609" xlink:href="#ArialMT-114"/>
     <use x="544.775391" xlink:href="#ArialMT-101"/>
     <use x="600.390625" xlink:href="#ArialMT-116"/>
     <use x="628.173828" xlink:href="#ArialMT-117"/>
     <use x="683.789062" xlink:href="#ArialMT-114"/>
     <use x="717.089844" xlink:href="#ArialMT-110"/>
     <use x="772.705078" xlink:href="#ArialMT-101"/>
     <use x="828.320312" xlink:href="#ArialMT-100"/>
     <use x="883.935547" xlink:href="#ArialMT-32"/>
     <use x="911.71875" xlink:href="#ArialMT-116"/>
     <use x="939.501953" xlink:href="#ArialMT-111"/>
     <use x="995.117188" xlink:href="#ArialMT-32"/>
     <use x="1022.900391" xlink:href="#ArialMT-111"/>
     <use x="1078.515625" xlink:href="#ArialMT-114"/>
     <use x="1111.816406" xlink:href="#ArialMT-105"/>
     <use x="1134.033203" xlink:href="#ArialMT-103"/>
     <use x="1189.648438" xlink:href="#ArialMT-105"/>
     <use x="1211.865234" xlink:href="#ArialMT-110"/>
     <use x="1267.480469" xlink:href="#ArialMT-97"/>
     <use x="1323.095703" xlink:href="#ArialMT-108"/>
     <use x="1345.3125" xlink:href="#ArialMT-32"/>
     <use x="1373.095703" xlink:href="#ArialMT-108"/>
     <use x="1395.3125" xlink:href="#ArialMT-101"/>
     <use x="1450.927734" xlink:href="#ArialMT-118"/>
     <use x="1500.927734" xlink:href="#ArialMT-101"/>
     <use x="1556.542969" xlink:href="#ArialMT-108"/>
    </g>
   </g>
   <g id="text_21">
    <!-- 2 points range -->
    <g style="fill:#165aa7;" transform="translate(165.869888 77.107692)scale(0.14 -0.14)">
     <use xlink:href="#ArialMT-50"/>
     <use x="55.615234" xlink:href="#ArialMT-32"/>
     <use x="83.398438" xlink:href="#ArialMT-112"/>
     <use x="139.013672" xlink:href="#ArialMT-111"/>
     <use x="194.628906" xlink:href="#ArialMT-105"/>
     <use x="216.845703" xlink:href="#ArialMT-110"/>
     <use x="272.460938" xlink:href="#ArialMT-116"/>
     <use x="300.244141" xlink:href="#ArialMT-115"/>
     <use x="350.244141" xlink:href="#ArialMT-32"/>
     <use x="378.027344" xlink:href="#ArialMT-114"/>
     <use x="411.328125" xlink:href="#ArialMT-97"/>
     <use x="466.943359" xlink:href="#ArialMT-110"/>
     <use x="522.558594" xlink:href="#ArialMT-103"/>
     <use x="578.173828" xlink:href="#ArialMT-101"/>
    </g>
   </g>
   <g id="text_22">
    <!-- 3 points range -->
    <g style="fill:#cb495c;" transform="translate(670.276667 122.270562)scale(0.14 -0.14)">
     <use xlink:href="#ArialMT-51"/>
     <use x="55.615234" xlink:href="#ArialMT-32"/>
     <use x="83.398438" xlink:href="#ArialMT-112"/>
     <use x="139.013672" xlink:href="#ArialMT-111"/>
     <use x="194.628906" xlink:href="#ArialMT-105"/>
     <use x="216.845703" xlink:href="#ArialMT-110"/>
     <use x="272.460938" xlink:href="#ArialMT-116"/>
     <use x="300.244141" xlink:href="#ArialMT-115"/>
     <use x="350.244141" xlink:href="#ArialMT-32"/>
     <use x="378.027344" xlink:href="#ArialMT-114"/>
     <use x="411.328125" xlink:href="#ArialMT-97"/>
     <use x="466.943359" xlink:href="#ArialMT-110"/>
     <use x="522.558594" xlink:href="#ArialMT-103"/>
     <use x="578.173828" xlink:href="#ArialMT-101"/>
    </g>
   </g>
  </g>
 </g>
 <defs>
  <clipPath id="p21df69f561">
   <rect height="326.16" width="669.6" x="59.524125" y="7.2"/>
  </clipPath>
 </defs>
</svg>
